<svg width="27" height="24" viewBox="0 0 27 24" fill="none" xmlns="http://www.w3.org/2000/svg">
<path d="M6.14854 22C5.70138 22 5.31011 21.85 4.97473 21.55C4.63936 21.25 4.47167 20.9 4.47167 20.5V3.5C4.47167 3.1 4.63936 2.75 4.97473 2.45C5.31011 2.15 5.70138 2 6.14854 2H20.6815C21.1286 2 21.5199 2.15 21.8553 2.45C22.1906 2.75 22.3583 3.1 22.3583 3.5V20.5C22.3583 20.9 22.1906 21.25 21.8553 21.55C21.5199 21.85 21.1286 22 20.6815 22H6.14854ZM6.14854 20.5H20.6815V3.5H19.0046V10.15L16.2936 8.75L13.5827 10.15V3.5H6.14854V20.5ZM7.93721 18.075H19.0325L15.4552 13.8L12.5207 17.2L10.5643 15L7.93721 18.075Z" fill="#454DB3"/>
</svg>
