<svg width="27" height="24" viewBox="0 0 27 24" fill="none" xmlns="http://www.w3.org/2000/svg">
<path d="M9.58613 13.5H15.8744V12H9.58613V13.5ZM9.58613 11.25H20.6256V9.75H9.58613V11.25ZM9.58613 9H20.6256V7.5H9.58613V9ZM7.26646 19C6.81929 19 6.42802 18.85 6.09264 18.55C5.75727 18.25 5.58958 17.9 5.58958 17.5V3.5C5.58958 3.1 5.75727 2.75 6.09264 2.45C6.42802 2.15 6.81929 2 7.26646 2H22.9173C23.3645 2 23.7557 2.15 24.0911 2.45C24.4265 2.75 24.5942 3.1 24.5942 3.5V17.5C24.5942 17.9 24.4265 18.25 24.0911 18.55C23.7557 18.85 23.3645 19 22.9173 19H7.26646ZM7.26646 17.5H22.9173V3.5H7.26646V17.5ZM3.91271 22C3.46554 22 3.07427 21.85 2.73889 21.55C2.40352 21.25 2.23583 20.9 2.23583 20.5V5H3.91271V20.5H21.2404V22H3.91271Z" fill="#454DB3"/>
</svg>
